HIERARCHY
ROOT Hips
{
	OFFSET 0.000000 100.481300 0.000000
	CHANNELS 6 Xposition Yposition Zposition Xrotation Yrotation Zrotation 
	JOINT Spine
	{
		OFFSET -0.279200 12.230698 -2.892100
		CHANNELS 3 Xrotation Yrotation Zrotation
		JOINT Spine1
		{
			OFFSET -0.232667 10.192268 -1.242267
			CHANNELS 3 Xrotation Yrotation Zrotation
			JOINT Spine1_split
			{
				OFFSET -0.232667 10.192268 -1.242267
				CHANNELS 3 Xrotation Yrotation Zrotation
				JOINT Spine2
				{
					OFFSET -0.232667 10.192268 -1.242267
					CHANNELS 3 Xrotation Yrotation Zrotation
					JOINT Neck
					{
						OFFSET -0.418800 17.814194 8.416900
						CHANNELS 3 Xrotation Yrotation Zrotation
						JOINT Head
						{
							OFFSET 0.000000 7.031097 3.806800
							CHANNELS 3 Xrotation Yrotation Zrotation
							JOINT HeadTop_End
							{
								OFFSET 0.000000 24.646606 12.978600
								CHANNELS 3 Xrotation Yrotation Zrotation
								End Site
								{
									OFFSET 0.000000 0.000000 0.000000
								}
							}
						}
					}
					JOINT LeftShoulder
					{
						OFFSET 8.476499 7.247704 -3.868750
						CHANNELS 3 Xrotation Yrotation Zrotation
						JOINT LeftShoulder_split
						{
							OFFSET 8.476499 7.247704 -3.868750
							CHANNELS 3 Xrotation Yrotation Zrotation
							JOINT LeftArm
							{
								OFFSET 9.308998 -2.777710 0.208600
								CHANNELS 3 Xrotation Yrotation Zrotation
								JOINT LeftForeArm
								{
									OFFSET 29.972298 0.000000 0.000000
									CHANNELS 3 Xrotation Yrotation Zrotation
									JOINT LeftHand
									{
										OFFSET 26.026505 0.000000 0.000000
										CHANNELS 3 Xrotation Yrotation Zrotation
										JOINT LeftHandThumb1
										{
											OFFSET 12.240501 -7.147949 9.207150
											CHANNELS 3 Xrotation Yrotation Zrotation
											JOINT LeftHandThumb2
											{
												OFFSET 4.138618 -2.389435 2.389433
												CHANNELS 3 Xrotation Yrotation Zrotation
												JOINT LeftHandThumb3
												{
													OFFSET 2.726913 -1.574387 1.574386
													CHANNELS 3 Xrotation Yrotation Zrotation
													JOINT LeftHandThumb4
													{
														OFFSET 3.941010 -2.275345 2.275342
														CHANNELS 3 Xrotation Yrotation Zrotation
														End Site
														{
															OFFSET 0.000000 0.000000 0.000000
														}
													}
												}
											}
										}
										JOINT LeftHandIndex1
										{
											OFFSET 24.424698 -1.985611 5.953459
											CHANNELS 3 Xrotation Yrotation Zrotation
											JOINT LeftHandIndex2
											{
												OFFSET 6.426697 0.000000 0.000000
												CHANNELS 3 Xrotation Yrotation Zrotation
												JOINT LeftHandIndex3
												{
													OFFSET 5.337898 0.000000 0.000000
													CHANNELS 3 Xrotation Yrotation Zrotation
													JOINT LeftHandIndex4
													{
														OFFSET 4.409401 0.000000 0.000000
														CHANNELS 3 Xrotation Yrotation Zrotation
														End Site
														{
															OFFSET 0.000000 0.000000 0.000000
														}
													}
												}
											}
										}
										JOINT LeftHandMiddle1
										{
											OFFSET 23.810104 0.000000 0.000000
											CHANNELS 3 Xrotation Yrotation Zrotation
											JOINT LeftHandMiddle2
											{
												OFFSET 7.176498 0.000000 0.000000
												CHANNELS 3 Xrotation Yrotation Zrotation
												JOINT LeftHandMiddle3
												{
													OFFSET 6.774902 0.000000 0.000000
													CHANNELS 3 Xrotation Yrotation Zrotation
													JOINT LeftHandMiddle4
													{
														OFFSET 5.403328 0.000000 0.000000
														CHANNELS 3 Xrotation Yrotation Zrotation
														End Site
														{
															OFFSET 0.000000 0.000000 0.000000
														}
													}
												}
											}
										}
										JOINT LeftHandRing1
										{
											OFFSET 22.908401 -0.839279 -6.020567
											CHANNELS 3 Xrotation Yrotation Zrotation
											JOINT LeftHandRing2
											{
												OFFSET 6.337502 0.000000 0.000000
												CHANNELS 3 Xrotation Yrotation Zrotation
												JOINT LeftHandRing3
												{
													OFFSET 5.779297 0.000000 0.000000
													CHANNELS 3 Xrotation Yrotation Zrotation
													JOINT LeftHandRing4
													{
														OFFSET 4.965698 0.000000 0.000000
														CHANNELS 3 Xrotation Yrotation Zrotation
														End Site
														{
															OFFSET 0.000000 0.000000 0.000000
														}
													}
												}
											}
										}
										JOINT LeftHandPinky1
										{
											OFFSET 20.037003 -1.530319 -10.950146
											CHANNELS 3 Xrotation Yrotation Zrotation
											JOINT LeftHandPinky2
											{
												OFFSET 5.254700 0.000000 0.000000
												CHANNELS 3 Xrotation Yrotation Zrotation
												JOINT LeftHandPinky3
												{
													OFFSET 4.810204 0.000000 0.000000
													CHANNELS 3 Xrotation Yrotation Zrotation
													JOINT LeftHandPinky4
													{
														OFFSET 3.647202 0.000000 0.000000
														CHANNELS 3 Xrotation Yrotation Zrotation
														End Site
														{
															OFFSET 0.000000 0.000000 0.000000
														}
													}
												}
											}
										}
									}
								}
							}
						}
					}
					JOINT RightShoulder
					{
						OFFSET -7.570500 7.247704 -3.868750
						CHANNELS 3 Xrotation Yrotation Zrotation
						JOINT RightShoulder_split
						{
							OFFSET -7.570500 7.247704 -3.868750
							CHANNELS 3 Xrotation Yrotation Zrotation
							JOINT RightArm
							{
								OFFSET -9.308998 -2.777710 0.208500
								CHANNELS 3 Xrotation Yrotation Zrotation
								JOINT RightForeArm
								{
									OFFSET -29.972300 0.000000 0.000000
									CHANNELS 3 Xrotation Yrotation Zrotation
									JOINT RightHand
									{
										OFFSET -26.026505 0.000000 0.000000
										CHANNELS 3 Xrotation Yrotation Zrotation
										JOINT RightHandThumb1
										{
											OFFSET -12.240601 -7.148026 9.207092
											CHANNELS 3 Xrotation Yrotation Zrotation
											JOINT RightHandThumb2
											{
												OFFSET -4.138618 -2.389435 2.389433
												CHANNELS 3 Xrotation Yrotation Zrotation
												JOINT RightHandThumb3
												{
													OFFSET -2.726974 -1.574417 1.574421
													CHANNELS 3 Xrotation Yrotation Zrotation
													JOINT RightHandThumb4
													{
														OFFSET -3.941010 -2.275345 2.275343
														CHANNELS 3 Xrotation Yrotation Zrotation
														End Site
														{
															OFFSET 0.000000 0.000000 0.000000
														}
													}
												}
											}
										}
										JOINT RightHandIndex1
										{
											OFFSET -24.424698 -1.985657 5.953444
											CHANNELS 3 Xrotation Yrotation Zrotation
											JOINT RightHandIndex2
											{
												OFFSET -6.426697 0.000000 0.000000
												CHANNELS 3 Xrotation Yrotation Zrotation
												JOINT RightHandIndex3
												{
													OFFSET -5.337898 0.000000 0.000000
													CHANNELS 3 Xrotation Yrotation Zrotation
													JOINT RightHandIndex4
													{
														OFFSET -4.409401 0.000000 0.000000
														CHANNELS 3 Xrotation Yrotation Zrotation
														End Site
														{
															OFFSET 0.000000 0.000000 0.000000
														}
													}
												}
											}
										}
										JOINT RightHandMiddle1
										{
											OFFSET -23.810097 0.000000 0.000000
											CHANNELS 3 Xrotation Yrotation Zrotation
											JOINT RightHandMiddle2
											{
												OFFSET -7.176498 0.000000 0.000000
												CHANNELS 3 Xrotation Yrotation Zrotation
												JOINT RightHandMiddle3
												{
													OFFSET -6.774902 0.000000 0.000000
													CHANNELS 3 Xrotation Yrotation Zrotation
													JOINT RightHandMiddle4
													{
														OFFSET -5.403328 0.000000 0.000000
														CHANNELS 3 Xrotation Yrotation Zrotation
														End Site
														{
															OFFSET 0.000000 0.000000 0.000000
														}
													}
												}
											}
										}
										JOINT RightHandRing1
										{
											OFFSET -22.908302 -0.839325 -6.020576
											CHANNELS 3 Xrotation Yrotation Zrotation
											JOINT RightHandRing2
											{
												OFFSET -6.337502 0.000000 0.000000
												CHANNELS 3 Xrotation Yrotation Zrotation
												JOINT RightHandRing3
												{
													OFFSET -5.779297 0.000000 0.000000
													CHANNELS 3 Xrotation Yrotation Zrotation
													JOINT RightHandRing4
													{
														OFFSET -4.965698 0.000000 0.000000
														CHANNELS 3 Xrotation Yrotation Zrotation
														End Site
														{
															OFFSET 0.000000 0.000000 0.000000
														}
													}
												}
											}
										}
										JOINT RightHandPinky1
										{
											OFFSET -20.037003 -1.530334 -10.950259
											CHANNELS 3 Xrotation Yrotation Zrotation
											JOINT RightHandPinky2
											{
												OFFSET -5.254700 0.000000 0.000000
												CHANNELS 3 Xrotation Yrotation Zrotation
												JOINT RightHandPinky3
												{
													OFFSET -4.810204 0.000000 0.000000
													CHANNELS 3 Xrotation Yrotation Zrotation
													JOINT RightHandPinky4
													{
														OFFSET -3.647202 0.000000 0.000000
														CHANNELS 3 Xrotation Yrotation Zrotation
														End Site
														{
															OFFSET 0.000000 0.000000 0.000000
														}
													}
												}
											}
										}
									}
								}
							}
						}
					}
				}
			}
		}
	}
	JOINT LeftUpLeg
	{
		OFFSET 15.427100 -6.655098 0.678600
		CHANNELS 3 Xrotation Yrotation Zrotation
		JOINT LeftLeg
		{
			OFFSET 4.081073 -39.591068 13.024000
			CHANNELS 3 Xrotation Yrotation Zrotation
			JOINT LeftFoot
			{
				OFFSET -4.081074 -37.707932 -15.979700
				CHANNELS 3 Xrotation Yrotation Zrotation
				JOINT LeftToeBase
				{
					OFFSET 5.346399 -15.068900 20.645000
					CHANNELS 3 Xrotation Yrotation Zrotation
					JOINT LeftToe_End
					{
						OFFSET 2.754700 0.931300 11.300900
						CHANNELS 3 Xrotation Yrotation Zrotation
						End Site
						{
							OFFSET 0.000000 0.000000 0.000000
						}
					}
				}
			}
		}
	}
	JOINT RightUpLeg
	{
		OFFSET -15.569500 -6.655098 0.678600
		CHANNELS 3 Xrotation Yrotation Zrotation
		JOINT RightLeg
		{
			OFFSET -4.081825 -39.591045 13.023800
			CHANNELS 3 Xrotation Yrotation Zrotation
			JOINT RightFoot
			{
				OFFSET 4.081824 -37.707954 -15.979600
				CHANNELS 3 Xrotation Yrotation Zrotation
				JOINT RightToeBase
				{
					OFFSET -5.346400 -15.068900 20.645000
					CHANNELS 3 Xrotation Yrotation Zrotation
					JOINT RightToe_End
					{
						OFFSET -2.754700 0.931300 11.300900
						CHANNELS 3 Xrotation Yrotation Zrotation
						End Site
						{
							OFFSET 0.000000 0.000000 0.000000
						}
					}
				}
			}
		}
	}
}
MOTION
Frames: 4
Frame Time: 0.016667
-10.612753 86.419319 89.072754 23.498330 13.638288 -7.426566 9.563948 0.546671 -2.769062 -0.471734 1.782877 -0.358115 0.000000 0.000000 0.000000 -0.315419 2.367534 -0.492588 -11.049975 -0.300772 0.541620 -9.090195 2.277658 -2.833870 0.000001 0.000000 -0.000000 0.804512 -1.055563 -19.731155 0.000000 0.000000 0.000000 11.314136 -4.215695 -51.272557 -0.000009 -61.671793 -0.000003 -22.443209 13.772018 -17.933493 74.823985 -40.508131 61.030315 25.606297 5.176779 -82.902241 43.120012 21.632215 -34.957475 -0.000003 0.000001 0.000000 5.901613 7.863750 -80.435504 5.375074 5.831741 -85.325701 1.695954 4.123086 -44.703349 -0.000000 0.000001 -0.000001 5.020597 8.216385 -91.029367 4.694991 5.736105 -78.585097 3.096844 5.164283 -61.877484 0.000001 0.000001 -0.000000 4.404981 8.246835 -91.688384 5.835747 5.851049 -89.849725 1.966862 4.379182 -48.356708 0.000000 -0.000001 -0.000002 5.249078 8.404176 -99.924636 2.493735 4.794749 -54.937575 1.973142 4.384745 -48.438824 0.000001 0.000000 -0.000002 0.318334 6.828682 17.985683 0.000000 0.000000 0.000000 14.222255 -10.989034 46.953859 -0.000024 67.377801 -0.000002 -3.079468 -19.120684 7.109475 47.809699 35.835414 -5.333811 34.631354 -33.014478 35.094601 43.708563 -16.938085 39.158707 0.000000 -0.000001 -0.000001 6.363571 -7.114826 84.445126 4.420391 -4.651155 87.082487 2.537488 -4.147778 62.900168 -0.000000 -0.000005 -0.000002 7.913292 -6.614852 96.213494 4.359611 -4.647679 86.332683 2.916760 -4.320420 68.033902 -0.000001 0.000001 0.000003 5.619630 -6.842403 101.279971 3.622442 -4.541010 77.149118 2.863061 -4.298421 67.319137 -0.000000 0.000001 -0.000003 5.448564 -6.873467 99.955201 1.714565 -3.611347 50.782515 2.430819 -4.091566 61.415394 0.000001 -0.000003 -0.000001 -34.336269 -2.046590 -8.153134 35.716739 -4.288136 -2.859039 -23.995781 1.852890 11.553554 -0.349015 -0.000002 0.000002 0.000000 -0.000001 0.000000 -52.956571 -6.160525 -14.657875 50.827163 -6.855170 1.171979 7.161019 -4.389724 15.522853 -24.689028 -0.003844 0.016304 -0.000000 0.000001 -0.000000 
-10.435476 86.697426 92.017410 23.766787 14.282007 -7.881903 9.424485 0.250389 -2.462569 -0.422845 1.770878 -0.370541 0.000000 0.000000 0.000000 -0.273306 2.351418 -0.497367 -11.032305 -0.263002 0.489890 -9.196466 2.170654 -2.889697 0.000001 -0.000001 -0.000000 0.828889 -1.055381 -19.581369 0.000000 0.000000 0.000000 11.301115 -4.179481 -51.475164 0.000008 -61.665523 0.000007 -22.424833 13.662206 -18.020877 74.823985 -40.508138 61.030322 25.831926 5.594314 -83.199081 43.102800 21.672884 -34.905808 -0.000000 0.000000 0.000002 5.804522 7.842028 -80.834415 5.406397 5.834201 -85.633934 1.681293 4.108253 -44.499034 -0.000001 0.000000 -0.000004 5.050376 8.220831 -91.320299 4.691301 5.735363 -78.548152 3.085148 5.158041 -61.747465 -0.000001 -0.000001 0.000001 4.420652 8.250798 -91.840602 5.847109 5.851061 -89.961228 1.975217 4.386581 -48.466063 0.000001 -0.000001 -0.000001 5.222580 8.401205 -99.673586 2.447232 4.761890 -54.379323 1.979082 4.389992 -48.516551 -0.000001 -0.000001 -0.000002 0.322449 6.792931 17.816151 0.000000 0.000000 0.000000 14.532752 -11.075062 47.066011 -0.000024 67.339593 0.000022 -3.353840 -18.746252 7.238128 47.809699 35.835414 -5.333809 34.631354 -33.014474 35.094601 43.484389 -17.047858 38.914596 -0.000000 -0.000001 0.000001 6.477992 -7.129513 84.356784 4.420348 -4.651149 87.082050 2.536512 -4.147272 62.886528 -0.000004 -0.000003 -0.000003 7.925217 -6.629797 95.875570 4.359711 -4.647675 86.333967 2.916712 -4.320405 68.033144 -0.000002 -0.000001 0.000002 5.608972 -6.844501 101.146475 3.622723 -4.541085 77.152751 2.865437 -4.299415 67.350972 -0.000001 0.000001 -0.000001 5.470964 -6.869689 100.094783 1.712305 -3.609510 50.746854 2.438623 -4.095802 61.524712 -0.000001 0.000000 -0.000001 -31.549183 -4.006888 -7.336304 34.261322 -3.478044 -3.334281 -25.635682 1.395842 10.890381 -0.358349 0.000006 -0.000001 -0.000000 0.000000 0.000000 -55.245128 -5.784900 -14.831199 47.694887 -6.844633 0.849016 8.662900 -5.313799 14.895384 -20.668518 0.017843 -0.121596 -0.000000 -0.000001 -0.000000 
-10.239234 86.827469 94.985306 24.034394 14.799777 -8.251677 9.244874 -0.055441 -2.257120 -0.374507 1.775976 -0.381386 0.000000 0.000000 0.000000 -0.232033 2.353975 -0.505843 -11.041540 -0.226220 0.447396 -9.369444 2.134335 -2.939959 0.000001 0.000003 -0.000000 0.850971 -1.055165 -19.445714 0.000000 0.000000 0.000000 11.378952 -4.063370 -51.572631 0.000008 -61.739624 0.000010 -22.565941 13.410600 -18.078240 74.823992 -40.508134 61.030322 25.822095 5.576436 -83.186868 43.067266 21.683363 -34.871678 0.000000 -0.000001 0.000001 5.795699 7.839586 -80.912572 5.409756 5.834457 -85.666930 1.681582 4.108543 -44.503074 -0.000000 0.000001 -0.000001 5.057604 8.221891 -91.390861 4.690769 5.735253 -78.542736 3.083725 5.157278 -61.731673 -0.000000 -0.000001 0.000003 4.426185 8.252188 -91.894410 5.849544 5.851065 -89.985051 1.974923 4.386320 -48.462228 0.000001 -0.000000 -0.000002 5.222003 8.401139 -99.668128 2.445859 4.760904 -54.362797 1.979459 4.390333 -48.521510 0.000000 0.000002 -0.000004 0.330578 6.717009 17.586538 0.000000 0.000000 0.000000 14.906755 -11.096835 47.280731 -0.000026 67.421159 0.000003 -3.553422 -18.320995 7.173605 47.809695 35.835414 -5.333809 34.631351 -33.014478 35.094605 43.382046 -17.096604 38.803824 -0.000000 -0.000001 0.000002 6.464553 -7.132949 84.233868 4.420333 -4.651163 87.081777 2.537508 -4.147777 62.900496 -0.000004 0.000001 -0.000001 7.910785 -6.635653 95.783725 4.359813 -4.647693 86.335230 2.916327 -4.320236 68.027960 0.000003 -0.000001 0.000004 5.607746 -6.844746 101.131025 3.623030 -4.541150 77.156467 2.865030 -4.299239 67.345331 0.000001 -0.000002 -0.000003 5.469697 -6.869905 100.086416 1.712255 -3.609470 50.745939 2.440736 -4.096942 61.554382 0.000002 -0.000001 -0.000002 -28.689325 -5.606773 -6.452588 32.837992 -2.541646 -3.681387 -27.311457 0.754675 10.122292 -0.363121 0.000009 0.000001 -0.000000 -0.000000 0.000000 -58.035011 -4.986212 -15.025173 44.702724 -6.148366 0.789440 10.796398 -6.613023 15.428369 -15.699996 0.120996 -1.465847 0.000000 -0.000000 0.000000 
-10.058867 86.759758 97.997131 24.207297 15.213348 -8.490415 9.052329 -0.336098 -2.228447 -0.327086 1.791590 -0.387872 0.000000 0.000000 0.000000 -0.191794 2.389388 -0.519250 -11.094802 -0.194232 0.432492 -9.618926 2.159149 -3.032438 -0.000000 -0.000001 0.000001 0.870927 -1.054920 -19.323109 0.000000 0.000000 0.000000 11.546874 -4.117301 -51.490884 0.000035 -61.781397 0.000040 -22.780955 13.089989 -18.094660 74.823985 -40.508138 61.030315 25.742780 5.432247 -83.085495 43.029539 21.690196 -34.839624 0.000001 0.000001 0.000000 5.812354 7.842440 -80.897252 5.404963 5.834095 -85.619850 1.686205 4.113236 -44.567606 -0.000000 0.000001 -0.000001 5.058249 8.221986 -91.397200 4.690538 5.735213 -78.540482 3.085293 5.158121 -61.749049 -0.000001 -0.000002 -0.000000 4.428763 8.252841 -91.919470 5.849379 5.851061 -89.983391 1.972121 4.383842 -48.425590 -0.000000 0.000000 -0.000001 5.228947 8.401930 -99.733971 2.457544 4.769244 -54.503547 1.978227 4.389244 -48.505381 0.000001 0.000000 -0.000001 0.359516 6.327629 17.328663 0.000000 0.000000 0.000000 15.284191 -11.054880 47.591180 0.000000 67.686983 0.000014 -3.676073 -17.827383 7.043250 47.809695 35.835414 -5.333808 34.631354 -33.014478 35.094605 43.315499 -17.127575 38.732295 0.000000 -0.000000 0.000002 6.413956 -7.132862 84.101287 4.420297 -4.651146 87.081538 2.539101 -4.148605 62.922448 0.000001 -0.000002 0.000002 7.888770 -6.638774 95.763644 4.359910 -4.647683 86.336316 2.915662 -4.319982 68.019149 -0.000001 0.000000 -0.000001 5.609251 -6.844438 101.149897 3.623314 -4.541217 77.160162 2.863795 -4.298726 67.328863 0.000001 -0.000001 0.000001 5.460070 -6.871536 100.035108 1.712825 -3.609914 50.755091 2.441206 -4.097204 61.560884 -0.000001 -0.000002 -0.000001 -25.708453 -7.019411 -5.595154 31.536923 -1.510760 -3.896716 -29.118804 0.149517 9.253892 -0.352320 0.000002 -0.000001 -0.000000 -0.000001 0.000000 -60.836925 -3.493699 -15.099226 42.182576 -7.745266 0.355853 12.744133 -5.394809 15.921661 -10.971645 0.000005 0.000002 -0.000000 0.000000 0.000000 
